<?xml version="1.0" encoding="UTF-8" standalone="no"?>
<svg width="555px" height="160px" viewBox="0 0 555 160" version="1.1" xmlns="http://www.w3.org/2000/svg" xmlns:xlink="http://www.w3.org/1999/xlink">
    <!-- Generator: Sketch 3.8.3 (29802) - http://www.bohemiancoding.com/sketch -->
    <title>adstream</title>
    <desc>Created with Sketch.</desc>
    <defs></defs>
    <g id="Client-logos" stroke="none" stroke-width="1" fill="none" fill-rule="evenodd">
        <g id="White" transform="translate(-113.000000, 0.000000)" fill="#FEFEFF">
            <g id="adstream" transform="translate(113.000000, 0.000000)">
                <path d="M152.910638,120 L554.661702,120 L554.661702,108.7 L152.910638,108.7 L152.910638,120 L152.910638,120 Z M530.619149,30.0808511 C521.482979,30.0808511 514.751064,35.3702128 510.904255,40.9 C507.297872,32.9659574 500.085106,30.0808511 491.910638,30.0808511 C483.495745,30.0808511 476.523404,33.9276596 471.955319,40.6595745 L471.714894,40.6595745 L471.714894,31.7638298 L454.885106,31.7638298 L454.885106,97.1595745 L472.917021,97.1595745 L472.917021,59.412766 C472.917021,46.6702128 481.57234,44.2659574 484.938298,44.2659574 C496.238298,44.2659574 495.757447,52.9212766 495.757447,60.6148936 L495.757447,97.1595745 L513.789362,97.1595745 L513.789362,60.8553191 C513.789362,52.6808511 515.712766,44.2659574 525.810638,44.2659574 C536.148936,44.2659574 536.870213,51.4787234 536.870213,60.1340426 L536.870213,97.1595745 L554.902128,97.1595745 L554.902128,53.4021277 C554.661702,36.5723404 544.56383,30.0808511 530.619149,30.0808511 L530.619149,30.0808511 Z M428.197872,71.9148936 C428.197872,75.7617021 427.717021,87.0617021 413.77234,87.0617021 C408.002128,87.0617021 402.712766,85.3787234 402.712766,78.6468085 C402.712766,72.1553191 407.761702,70.2319149 413.291489,69.0297872 C418.821277,68.0680851 425.07234,67.8276596 428.197872,65.1829787 L428.197872,71.9148936 L428.197872,71.9148936 Z M407.040426,59.6531915 C395.980851,61.0957447 384.680851,64.7021277 384.680851,79.6085106 C384.680851,93.0723404 394.538298,99.3234043 407.040426,99.3234043 C414.974468,99.3234043 423.389362,97.1595745 428.919149,91.1489362 C429.159574,93.312766 429.640426,95.4765957 430.121277,97.4 L448.393617,97.4 C446.710638,94.7553191 446.229787,88.7446809 446.229787,82.9744681 L446.229787,48.593617 C446.229787,32.9659574 430.602128,30.0808511 417.619149,30.0808511 C402.953191,30.0808511 387.806383,35.1297872 386.844681,51.9595745 L404.876596,51.9595745 C405.597872,44.987234 409.925532,42.1021277 416.657447,42.1021277 C422.908511,42.1021277 428.197872,43.3042553 428.197872,50.9978723 C428.197872,58.2106383 418.1,57.9702128 407.040426,59.6531915 L407.040426,59.6531915 Z M347.895745,99.0829787 C362.802128,99.0829787 373.380851,92.5914894 378.429787,77.2042553 L362.561702,77.2042553 C361.359574,81.2914894 355.589362,85.6191489 348.376596,85.6191489 C338.278723,85.6191489 332.748936,80.3297872 332.268085,69.0297872 L379.391489,69.0297872 C380.593617,48.8340426 370.014894,30.3212766 347.655319,30.3212766 C327.7,30.3212766 314.23617,45.2276596 314.23617,64.9425532 C314.717021,84.8978723 327.459574,99.0829787 347.895745,99.0829787 L347.895745,99.0829787 Z M347.414894,43.5446809 C356.070213,43.5446809 360.157447,48.3531915 361.6,57.4893617 L332.508511,57.4893617 C332.748936,52.4404255 336.114894,43.5446809 347.414894,43.5446809 L347.414894,43.5446809 Z M288.751064,67.8276596 C288.751064,56.287234 293.319149,46.9106383 306.542553,46.9106383 C308.706383,46.9106383 311.351064,47.1510638 313.034043,47.6319149 L313.034043,31.0425532 C311.831915,30.5617021 310.389362,30.3212766 309.187234,30.3212766 C300.531915,30.3212766 291.63617,36.0914894 288.270213,44.2659574 L288.029787,44.2659574 L288.029787,32.2446809 L270.959574,32.2446809 L270.959574,97.6404255 L288.991489,97.6404255 L288.991489,67.8276596 L288.751064,67.8276596 Z M232.491489,82.493617 C232.491489,95.4765957 242.108511,98.1212766 253.168085,98.1212766 C256.774468,98.1212766 260.621277,97.8808511 263.746809,97.4 L263.746809,83.4553191 C261.823404,83.9361702 260.140426,83.9361702 258.217021,83.9361702 C252.206383,83.9361702 250.523404,82.493617 250.523404,76.2425532 L250.523404,43.7851064 L263.746809,43.7851064 L263.746809,31.7638298 L250.523404,31.7638298 L250.523404,12.2893617 L232.491489,12.2893617 L232.491489,32.0042553 L221.67234,32.0042553 L221.67234,44.0255319 L232.491489,44.0255319 L232.491489,82.493617 L232.491489,82.493617 Z M189.93617,87.0617021 C182.96383,87.0617021 176.231915,83.9361702 176.231915,76.0021277 L159.161702,76.0021277 C159.882979,93.312766 174.789362,99.0829787 189.93617,99.0829787 C204.842553,99.0829787 219.748936,93.5531915 219.748936,76.2425532 C219.748936,64.2212766 209.410638,60.3744681 199.07234,57.9702128 C188.734043,55.5659574 178.63617,54.6042553 178.63617,48.3531915 C178.63617,43.0638298 184.646809,42.3425532 188.734043,42.3425532 C195.225532,42.3425532 200.514894,44.2659574 200.995745,51.2382979 L218.065957,51.2382979 C216.623404,35.1297872 203.640426,30.3212766 189.214894,30.3212766 C175.270213,30.3212766 160.844681,34.6489362 160.844681,51.2382979 C160.844681,62.7787234 171.182979,66.3851064 181.521277,68.7893617 C194.504255,71.6744681 201.957447,73.3574468 201.957447,78.887234 C201.476596,84.8978723 194.985106,87.0617021 189.93617,87.0617021 L189.93617,87.0617021 Z M134.878723,39.9382979 L134.638298,39.9382979 C130.551064,33.4468085 123.097872,30.3212766 115.404255,30.3212766 C96.1702128,30.3212766 86.5531915,46.6702128 86.5531915,64.2212766 C86.5531915,82.2531915 96.1702128,99.3234043 115.885106,99.3234043 C124.3,99.3234043 131.512766,96.1978723 135.840426,89.2255319 L136.080851,89.2255319 L136.080851,97.6404255 L153.151064,97.6404255 L153.151064,7 L135.119149,7 L135.119149,39.9382979 L134.878723,39.9382979 Z M119.97234,85.3787234 C108.912766,85.3787234 104.104255,74.5595745 104.104255,64.4617021 C104.104255,53.6425532 108.191489,43.5446809 119.97234,43.5446809 C131.512766,43.5446809 135.359574,53.6425532 135.359574,64.2212766 C135.6,75.0404255 131.993617,85.3787234 119.97234,85.3787234 L119.97234,85.3787234 Z M34.3808511,7 L0,97.1595745 L20.1957447,97.1595745 L27.1680851,76.9638298 L60.8276596,76.9638298 L67.5595745,97.1595745 L88.2361702,97.1595745 L54.5765957,7 L34.3808511,7 L34.3808511,7 Z M32.4574468,62.2978723 L44.2382979,29.1191489 L44.4787234,29.1191489 L55.7787234,62.2978723 L32.4574468,62.2978723 L32.4574468,62.2978723 Z"></path>
            </g>
        </g>
    </g>
</svg>