<?xml version="1.0" encoding="UTF-8" standalone="no"?>
<svg width="764px" height="160px" viewBox="0 0 764 160" version="1.1" xmlns="http://www.w3.org/2000/svg" xmlns:xlink="http://www.w3.org/1999/xlink">
    <!-- Generator: Sketch 3.8.3 (29802) - http://www.bohemiancoding.com/sketch -->
    <title>dailymailcom</title>
    <desc>Created with Sketch.</desc>
    <defs></defs>
    <g id="Client-logos" stroke="none" stroke-width="1" fill="none" fill-rule="evenodd">
        <g id="White" transform="translate(-8.000000, 0.000000)">
            <g id="dailymailcom" transform="translate(8.000000, 0.000000)">
                <rect id="Area" fill-opacity="0" fill="#63D263" x="0" y="0" width="764" height="160"></rect>
                <path d="M546.802,97 L546.802,84.138 L536.89,84.138 L536.89,97 L546.802,97 Z M600.072,93.814 L600.072,87.324 C595.942,89.802 588.154,92.162 580.838,92.162 C567.504,92.162 557.828,85.2 557.828,64.196 L557.828,63.016 C557.828,43.192 567.622,35.404 580.72,35.404 C588.39,35.404 594.762,37.528 599.246,39.888 L599.246,32.926 C596.06,31.274 589.452,29.15 580.484,29.15 C562.312,29.15 550.63,40.714 550.63,62.308 L550.63,65.14 C550.63,88.386 562.666,98.298 580.838,98.298 C590.396,98.298 596.414,95.82 600.072,93.814 L600.072,93.814 Z M661.826001,65.848 L661.826001,61.6 C661.826001,43.428 652.976001,29.268 631.618001,29.268 C612.266001,29.268 601.646001,42.838 601.646001,61.6 L601.646001,65.848 C601.646001,87.324 613.446001,98.298 631.618001,98.298 C650.380001,98.298 661.826001,86.498 661.826001,65.848 L661.826001,65.848 Z M654.864001,64.196 C654.864001,83.43 647.312001,92.752 631.618001,92.752 C616.632001,92.752 608.608001,83.902 608.608001,64.196 L608.608001,63.252 C608.608001,46.024 616.042001,35.05 631.854001,35.05 C648.256001,35.05 654.864001,46.378 654.864001,63.252 L654.864001,64.196 Z M763.284001,97 L763.284001,47.44 C763.284001,37.528 756.794001,29.386 742.870001,29.386 C731.542001,29.386 722.574001,35.758 718.208001,43.9 C716.556001,33.988 709.358001,29.386 698.384001,29.386 C686.466001,29.386 676.908001,37.41 674.666001,43.546 L674.430001,31.51 L667.940001,31.51 L667.940001,97 L674.902001,97 L674.902001,49.564 C678.088001,41.304 687.410001,35.05 696.378001,35.05 C706.172001,35.05 712.072001,39.416 712.072001,47.912 L712.072001,97 L719.152001,97 L719.152001,49.328 C723.636001,38.354 734.846001,35.05 741.218001,35.05 C750.776001,35.05 756.322001,40.242 756.322001,47.558 L756.322001,97 L763.284001,97 Z" id=".com" fill="#FFFFFF"></path>
                <path d="M487.261494,12.6115862 C487.261494,12.6115862 512.187664,4.58572414 515.46412,3.822 C518.713443,3.05151724 518.526895,4.58234483 518.526895,4.58234483 C518.526895,4.58234483 517.756962,75.2673793 518.340347,77.757931 C518.910166,80.2282069 520.056586,79.6503448 520.056586,79.6503448 C520.056586,79.6503448 525.819216,83.6784828 527.158968,84.2529655 C528.505503,84.8274483 527.732178,86.1487586 527.732178,86.1487586 L513.730922,97.0470345 C513.730922,97.0470345 490.788942,86.9733103 489.001475,85.7837931 C486.698459,84.2529655 488.22815,83.2898621 488.22815,83.2898621 L492.244014,79.2887586 C492.244014,79.2887586 493.017339,21.3944138 491.877702,18.326 C490.717715,15.2643448 487.071554,14.1322759 487.071554,14.1322759 C486.315188,12.7974483 487.261494,12.6115862 487.261494,12.6115862 L487.261494,12.6115862 Z" id="l" fill="#FFFFFF"></path>
                <path d="M459.265766,24.641931 C460.028915,26.5613793 462.145384,26.1626207 462.145384,26.1626207 C471.160728,22.5332414 474.800105,13.9328966 474.800105,13.9328966 C477.116688,5.53531034 471.73733,3.24413793 471.73733,3.24413793 C467.039719,0.375103448 463.495312,2.66627586 463.495312,2.66627586 C458.031159,5.62655172 456.603221,11.2666207 456.603221,11.2666207 C455.253293,18.7247586 459.265766,24.641931 459.265766,24.641931 Z M455.253293,28.4537931 C455.253293,28.4537931 440.488888,37.4461379 439.325508,39.1695862 C438.179087,40.8727586 439.142352,41.6398621 439.142352,41.6398621 C439.142352,41.6398621 445.457841,45.6544828 447.197823,46.2391034 C448.917454,46.8068276 448.33746,47.769931 448.33746,47.769931 L448.730906,77.1868276 C448.917454,77.9505517 448.75804,79.9984138 448.75804,79.9984138 C448.75804,79.9984138 446.234558,81.9685517 444.904981,83.1107586 C443.321021,84.4455862 444.511535,85.7905517 444.511535,85.7905517 L467.324628,97.2396552 C467.324628,97.2396552 482.784348,86.1555172 484.134275,85.5911724 C485.474027,85.0302069 484.134275,83.8643448 484.134275,83.8643448 C484.134275,83.8643448 477.493176,80.0491034 476.343363,79.4712414 C475.193551,78.9001379 475.57343,77.7646897 475.57343,77.7646897 C475.57343,77.7646897 474.759403,48.7566897 475.386882,46.2424828 C475.963484,43.947931 476.730026,44.6846207 476.730026,44.6846207 C476.730026,44.6846207 478.836319,44.1304138 480.55595,42.9814483 C482.299324,41.846 480.756065,40.8795172 480.756065,40.8795172 C480.756065,40.8795172 459.472664,29.7987586 457.929405,28.4571724 C456.389539,27.1223448 455.253293,28.4537931 455.253293,28.4537931 Z" id="i" fill="#FFFFFF"></path>
                <path d="M441.628525,82.7221379 L431.090273,75.6526207 L431.090273,46.8068276 C431.090273,46.8068276 430.900334,45.472 431.856815,45.2692414 L435.876071,42.0318621 C435.876071,42.0318621 436.639221,40.8693793 435.313036,39.341931 C433.963108,37.8111034 409.226878,25.5847586 409.226878,25.5847586 C409.226878,25.5847586 408.270397,24.260069 405.974164,25.7875172 C405.974164,25.7875172 378.938309,36.6790345 368.186375,50.6322069 C368.186375,50.6322069 359.873129,55.903931 361.26715,77.1361379 L361.226449,77.1462759 C361.226449,77.1462759 361.243407,77.267931 361.284109,77.4673103 C361.287501,77.518 361.287501,77.5315172 361.290892,77.572069 L361.297676,77.572069 C361.731823,80.1606207 365.028631,94.6342069 385.24023,97.2362759 L400.014811,85.3917931 C400.014811,85.3917931 400.784745,84.0569655 401.931165,85.205931 L426.864119,97.2362759 L442.018579,85.3917931 C442.018579,85.3951724 442.788512,84.0603448 441.628525,82.7221379 L441.628525,82.7221379 Z M397.335308,81.7624138 C397.335308,81.7624138 387.597515,76.9063448 382.523417,68.1877241 C381.251501,65.5417241 378.504161,58.7121379 380.461216,51.3891724 C380.461216,51.3891724 380.834312,43.1571724 390.419474,38.9769655 L403.460857,47.6888276 L403.281093,80.8128276 C403.281093,80.8162069 401.55807,83.6852414 397.335308,81.7624138 L397.335308,81.7624138 Z" id="a" fill="#FFFFFF"></path>
                <path d="M358.211159,83.1073793 C358.211159,83.1073793 352.06865,80.2315862 351.305501,72.9728276 L351.305501,14.5107586 C351.305501,14.5107586 352.06865,14.1390345 350.352411,12.979931 L328.66878,0.378482759 C328.66878,0.378482759 328.102353,-0.777241379 325.999452,0.952965517 L307.585494,12.402069 L289.168144,2.27089655 C289.168144,2.27089655 288.398211,1.5037931 287.451905,2.06813793 C285.969698,2.94675862 264.241974,14.5107586 264.241974,14.5107586 L248.137817,5.14331034 C248.137817,5.14331034 247.364491,4.00786207 246.404618,4.7682069 L228.763986,16.0415862 C228.763986,16.0415862 226.281205,17.0114483 229.723859,18.9038621 L230.300461,19.1133793 L242.578694,27.9063448 L242.578694,79.6604828 L236.239462,83.3 C236.239462,83.3 234.129777,84.2631034 236.052915,85.5945517 L258.499696,97.2430345 L275.567118,87.6931034 C275.567118,87.6931034 277.096809,86.7333793 275.746882,85.3985517 L271.727626,82.8742069 L271.653007,59.7935172 L283.809136,59.7935172 L283.809136,77.7613103 L278.246622,81.1913103 C278.246622,81.1913103 276.516815,82.1476552 278.813049,83.6818621 L304.515935,97.2362759 L321.776689,86.5508966 C321.776689,86.5508966 323.499712,86.3616552 322.363467,85.0268276 L314.094314,79.3326897 L314.036654,58.7797241 L325.894306,41.6466207 L313.982385,41.6466207 L313.91455,16.8154483 L325.029403,22.5298621 C325.029403,22.5298621 326.375939,22.1648966 326.762601,24.8277931 L326.762601,80.8128276 C326.762601,80.8128276 328.102353,92.4714483 342.483488,97.2362759 L359.177815,85.3917931 C359.181207,85.3951724 359.940965,84.4422069 358.211159,83.1073793 L358.211159,83.1073793 Z M267.511647,80.2349655 C267.511647,80.2349655 266.745106,81.002069 266.558558,79.6571034 L266.745106,19.2958621 C266.745106,19.2958621 266.901127,17.2311034 269.99782,17.1533793 L270.194543,81.9144828 L267.511647,80.2349655 L267.511647,80.2349655 Z M281.689276,41.6398621 L271.632656,56.5764138 L271.527511,17.4913103 L282.269269,23.1144828 C282.269269,23.1144828 283.222359,22.3473793 283.805744,24.8311724 L283.805744,41.6432414 L281.689276,41.6432414 L281.689276,41.6398621 Z M311.228262,77.376069 C311.228262,77.376069 310.07845,77.7613103 309.685004,76.4163448 L309.685004,59.7935172 L312.506962,59.7935172 L312.551055,78.2884828 L311.228262,77.376069 L311.228262,77.376069 Z M309.685004,41.65 L309.685004,39.929931 L309.501848,17.1905517 C309.501848,17.1905517 308.979514,15.0615862 312.381467,16.126069 L312.449302,41.6533793 L309.685004,41.6533793 L309.685004,41.65 Z" id="m" fill="#FFFFFF"></path>
                <path d="M222.442,31.156 L215.598,31.156 L190.7,88.74 L166.038,31.156 L158.84,31.156 L186.806,96.41 L177.838,116.706 L184.682,116.706 L222.442,31.156 Z M152.372,97 L152.372,10.034 L145.528,10.034 L145.528,97 L152.372,97 Z M134.974,97 L134.974,30.802 L128.012,30.802 L128.012,97 L134.974,97 Z M135.8,23.368 L135.8,13.338 L126.95,13.338 L126.95,23.368 L135.8,23.368 Z M111.794,74.816 C111.794,84.374 104.36,92.634 91.616,92.634 C80.288,92.634 72.264,86.616 72.264,74.934 L72.264,73.164 C72.264,63.37 80.17,56.29 91.616,56.29 C103.888,56.29 111.794,64.55 111.794,73.046 L111.794,74.816 Z M118.402,97 L118.402,47.794 C118.402,38.944 112.148,29.386 95.392,29.386 C85.834,29.386 78.164,31.392 73.798,33.752 L73.798,39.534 C78.282,37.056 86.424,34.814 94.448,34.814 C107.664,34.814 111.794,41.422 111.794,48.266 L111.794,62.544 C107.9,55.11 99.876,51.216 90.554,51.216 C74.978,51.216 65.538,60.892 65.538,73.99 L65.538,75.17 C65.538,90.746 76.394,97.826 89.374,97.826 C99.758,97.826 108.962,93.106 111.912,85.082 L112.384,97 L118.402,97 Z M53.692,54.756 C53.692,80.244 44.606,91.454 27.142,91.454 L7.082,91.454 L7.082,15.698 L24.782,15.698 C43.426,15.698 53.692,28.324 53.692,52.396 L53.692,54.756 Z M60.89,55.346 L60.89,51.806 C60.89,22.07 46.258,10.034 25.136,10.034 L0.12,10.034 L0.12,97 L26.434,97 C49.208,97 60.89,83.194 60.89,55.346 L60.89,55.346 Z" id="Daily" fill="#FFFFFF"></path>
            </g>
        </g>
    </g>
</svg>