<?xml version="1.0" encoding="UTF-8" standalone="no"?>
<svg width="642px" height="160px" viewBox="0 0 642 160" version="1.1" xmlns="http://www.w3.org/2000/svg" xmlns:xlink="http://www.w3.org/1999/xlink">
    <!-- Generator: Sketch 3.8.3 (29802) - http://www.bohemiancoding.com/sketch -->
    <title>mailonline</title>
    <desc>Created with Sketch.</desc>
    <defs></defs>
    <g id="Client-logos" stroke="none" stroke-width="1" fill="none" fill-rule="evenodd">
        <g id="White" transform="translate(-69.000000, 0.000000)" fill="#FFFFFF">
            <g id="mailonline" transform="translate(69.000000, 0.000000)">
                <path d="M591.526188,65.5822759 C591.526188,83.6649655 601.362341,91.6097241 615.194008,91.6097241 C625.735651,91.6097241 633.000838,88.5649655 636.630039,86.5813103 L636.630039,92.3058621 C632.074883,95.5702759 623.276613,97.3342759 613.898349,97.3342759 C600.422819,97.3342759 584.505209,89.7375862 584.505209,65.8086897 L584.505209,61.1317241 C584.505209,40.8254483 596.674905,29.0215172 613.209819,29.0215172 C630.782616,29.0215172 641.215722,41.1735172 641.215722,60.8951724 L641.215722,65.5822759 L591.526188,65.5822759 L591.526188,65.5822759 Z M613.426892,34.9724828 C601.243629,34.9724828 591.756828,43.1605517 591.526188,60.2091724 L634.171001,60.2091724 C634.171001,43.1605517 626.213892,34.9724828 613.426892,34.9724828 L613.426892,34.9724828 Z" id="e"></path>
                <path d="M563.530459,96.04 L563.530459,46.887931 C563.530459,39.7643448 557.910285,34.7426897 548.528629,34.7426897 C539.153757,34.7426897 530.487767,39.9941379 526.505821,48.760069 L526.505821,96.04 L519.57642,96.04 L519.57642,31.2417241 L526.02758,31.2417241 L526.265004,43.1605517 C529.063221,36.3715172 537.980203,29.1364138 550.519602,29.1364138 C562.584154,29.1364138 570.432726,35.8004138 570.432726,48.1754483 L570.432726,96.04 L563.530459,96.04 L563.530459,96.04 Z" id="n"></path>
                <path d="M493.92441,23.1786897 L493.92441,13.2671724 L502.705721,13.2671724 L502.705721,23.1786897 L493.92441,23.1786897 L493.92441,23.1786897 Z M494.979252,96.04 L494.979252,30.5455862 L501.898478,30.5455862 L501.898478,96.04 L494.979252,96.04 L494.979252,96.04 Z" id="i"></path>
                <polygon id="l" points="470.148052 96.04 470.148052 9.98248276 476.941782 9.98248276 476.941782 96.04"></polygon>
                <path d="M446.236024,96.04 L446.236024,46.887931 C446.236024,39.7643448 440.619241,34.7426897 431.234194,34.7426897 C421.866105,34.7426897 413.200115,39.9941379 409.211385,48.760069 L409.211385,96.04 L402.315902,96.04 L402.315902,31.2417241 L408.736536,31.2417241 L408.984136,43.1605517 C411.809486,36.3715172 420.702726,29.1364138 433.242126,29.1364138 C445.310069,29.1364138 453.172208,35.8004138 453.172208,48.1754483 L453.172208,96.04 L446.236024,96.04 L446.236024,96.04 Z" id="n"></path>
                <path d="M354.383308,97.4457931 C334.351473,97.4457931 320.638518,84.3712414 320.638518,55.9951724 L320.638518,51.0816552 C320.638518,23.6450345 333.065989,8.82337931 354.383308,8.82337931 C376.758862,8.82337931 388.124707,23.7633103 388.124707,51.0816552 L388.124707,55.7586207 C388.124707,83.7866207 375.948227,97.4457931 354.383308,97.4457931 L354.383308,97.4457931 Z M380.869696,52.2610345 C380.869696,26.6796552 372.542883,14.4262759 354.379916,14.4262759 C337.281968,14.4262759 327.890137,25.7537241 327.890137,52.2610345 L327.890137,54.3629655 C327.890137,80.2755172 337.383721,91.7246207 354.379916,91.7246207 C371.48804,91.7246207 380.869696,81.9144828 380.869696,54.5927586 L380.869696,52.2610345 L380.869696,52.2610345 Z" id="o"></path>
                <path d="M260.261494,12.6115862 C260.261494,12.6115862 285.187664,4.58572414 288.46412,3.822 C291.713443,3.05151724 291.526895,4.58234483 291.526895,4.58234483 C291.526895,4.58234483 290.756962,75.2673793 291.340347,77.757931 C291.910166,80.2282069 293.056586,79.6503448 293.056586,79.6503448 C293.056586,79.6503448 298.819216,83.6784828 300.158968,84.2529655 C301.505503,84.8274483 300.732178,86.1487586 300.732178,86.1487586 L286.730922,97.0470345 C286.730922,97.0470345 263.788942,86.9733103 262.001475,85.7837931 C259.698459,84.2529655 261.22815,83.2898621 261.22815,83.2898621 L265.244014,79.2887586 C265.244014,79.2887586 266.017339,21.3944138 264.877702,18.326 C263.717715,15.2643448 260.071554,14.1322759 260.071554,14.1322759 C259.315188,12.7974483 260.261494,12.6115862 260.261494,12.6115862 L260.261494,12.6115862 Z" id="l"></path>
                <path d="M232.265766,24.641931 C233.028915,26.5613793 235.145384,26.1626207 235.145384,26.1626207 C244.160728,22.5332414 247.800105,13.9328966 247.800105,13.9328966 C250.116688,5.53531034 244.73733,3.24413793 244.73733,3.24413793 C240.039719,0.375103448 236.495312,2.66627586 236.495312,2.66627586 C231.031159,5.62655172 229.603221,11.2666207 229.603221,11.2666207 C228.253293,18.7247586 232.265766,24.641931 232.265766,24.641931 Z M228.253293,28.4537931 C228.253293,28.4537931 213.488888,37.4461379 212.325508,39.1695862 C211.179087,40.8727586 212.142352,41.6398621 212.142352,41.6398621 C212.142352,41.6398621 218.457841,45.6544828 220.197823,46.2391034 C221.917454,46.8068276 221.33746,47.769931 221.33746,47.769931 L221.730906,77.1868276 C221.917454,77.9505517 221.75804,79.9984138 221.75804,79.9984138 C221.75804,79.9984138 219.234558,81.9685517 217.904981,83.1107586 C216.321021,84.4455862 217.511535,85.7905517 217.511535,85.7905517 L240.324628,97.2396552 C240.324628,97.2396552 255.784348,86.1555172 257.134275,85.5911724 C258.474027,85.0302069 257.134275,83.8643448 257.134275,83.8643448 C257.134275,83.8643448 250.493176,80.0491034 249.343363,79.4712414 C248.193551,78.9001379 248.57343,77.7646897 248.57343,77.7646897 C248.57343,77.7646897 247.759403,48.7566897 248.386882,46.2424828 C248.963484,43.947931 249.730026,44.6846207 249.730026,44.6846207 C249.730026,44.6846207 251.836319,44.1304138 253.55595,42.9814483 C255.299324,41.846 253.756065,40.8795172 253.756065,40.8795172 C253.756065,40.8795172 232.472664,29.7987586 230.929405,28.4571724 C229.389539,27.1223448 228.253293,28.4537931 228.253293,28.4537931 Z" id="i"></path>
                <path d="M214.628525,82.7221379 L204.090273,75.6526207 L204.090273,46.8068276 C204.090273,46.8068276 203.900334,45.472 204.856815,45.2692414 L208.876071,42.0318621 C208.876071,42.0318621 209.639221,40.8693793 208.313036,39.341931 C206.963108,37.8111034 182.226878,25.5847586 182.226878,25.5847586 C182.226878,25.5847586 181.270397,24.260069 178.974164,25.7875172 C178.974164,25.7875172 151.938309,36.6790345 141.186375,50.6322069 C141.186375,50.6322069 132.873129,55.903931 134.26715,77.1361379 L134.226449,77.1462759 C134.226449,77.1462759 134.243407,77.267931 134.284109,77.4673103 C134.287501,77.518 134.287501,77.5315172 134.290892,77.572069 L134.297676,77.572069 C134.731823,80.1606207 138.028631,94.6342069 158.24023,97.2362759 L173.014811,85.3917931 C173.014811,85.3917931 173.784745,84.0569655 174.931165,85.205931 L199.864119,97.2362759 L215.018579,85.3917931 C215.018579,85.3951724 215.788512,84.0603448 214.628525,82.7221379 L214.628525,82.7221379 Z M170.335308,81.7624138 C170.335308,81.7624138 160.597515,76.9063448 155.523417,68.1877241 C154.251501,65.5417241 151.504161,58.7121379 153.461216,51.3891724 C153.461216,51.3891724 153.834312,43.1571724 163.419474,38.9769655 L176.460857,47.6888276 L176.281093,80.8128276 C176.281093,80.8162069 174.55807,83.6852414 170.335308,81.7624138 L170.335308,81.7624138 Z" id="a"></path>
                <path d="M131.211159,83.1073793 C131.211159,83.1073793 125.06865,80.2315862 124.305501,72.9728276 L124.305501,14.5107586 C124.305501,14.5107586 125.06865,14.1390345 123.352411,12.979931 L101.66878,0.378482759 C101.66878,0.378482759 101.102353,-0.777241379 98.9994516,0.952965517 L80.5854937,12.402069 L62.1681441,2.27089655 C62.1681441,2.27089655 61.3982107,1.5037931 60.4519049,2.06813793 C58.9696983,2.94675862 37.2419742,14.5107586 37.2419742,14.5107586 L21.1378165,5.14331034 C21.1378165,5.14331034 20.3644913,4.00786207 19.4046184,4.7682069 L1.76398573,16.0415862 C1.76398573,16.0415862 -0.718795107,17.0114483 2.72385865,18.9038621 L3.30046075,19.1133793 L15.5786938,27.9063448 L15.5786938,79.6604828 L9.23946245,83.3 C9.23946245,83.3 7.1297771,84.2631034 9.05291471,85.5945517 L31.4996955,97.2430345 L48.5671179,87.6931034 C48.5671179,87.6931034 50.0968094,86.7333793 48.7468821,85.3985517 L44.7276262,82.8742069 L44.6530071,59.7935172 L56.8091363,59.7935172 L56.8091363,77.7613103 L51.2466218,81.1913103 C51.2466218,81.1913103 49.5168155,82.1476552 51.8130486,83.6818621 L77.5159354,97.2362759 L94.7766891,86.5508966 C94.7766891,86.5508966 96.4997119,86.3616552 95.3634665,85.0268276 L87.094314,79.3326897 L87.0366538,58.7797241 L98.8943065,41.6466207 L86.9823853,41.6466207 L86.9145498,16.8154483 L98.0294033,22.5298621 C98.0294033,22.5298621 99.3759388,22.1648966 99.7626014,24.8277931 L99.7626014,80.8128276 C99.7626014,80.8128276 101.102353,92.4714483 115.483488,97.2362759 L132.177815,85.3917931 C132.181207,85.3951724 132.940965,84.4422069 131.211159,83.1073793 L131.211159,83.1073793 Z M40.5116473,80.2349655 C40.5116473,80.2349655 39.7451057,81.002069 39.5585579,79.6571034 L39.7451057,19.2958621 C39.7451057,19.2958621 39.9011274,17.2311034 42.9978199,17.1533793 L43.194543,81.9144828 L40.5116473,80.2349655 L40.5116473,80.2349655 Z M54.6892756,41.6398621 L44.6326565,56.5764138 L44.5275114,17.4913103 L55.2692695,23.1144828 C55.2692695,23.1144828 56.2223588,22.3473793 56.8057445,24.8311724 L56.8057445,41.6432414 L54.6892756,41.6432414 L54.6892756,41.6398621 Z M84.2282623,77.376069 C84.2282623,77.376069 83.0784499,77.7613103 82.6850037,76.4163448 L82.6850037,59.7935172 L85.5069623,59.7935172 L85.5510554,78.2884828 L84.2282623,77.376069 L84.2282623,77.376069 Z M82.6850037,41.65 L82.6850037,39.929931 L82.5018478,17.1905517 C82.5018478,17.1905517 81.9795141,15.0615862 85.3814665,16.126069 L85.4493021,41.6533793 L82.6850037,41.6533793 L82.6850037,41.65 Z" id="m"></path>
            </g>
        </g>
    </g>
</svg>