<?xml version="1.0" encoding="UTF-8"?>
<svg width="80px" height="80px" viewBox="0 0 80 80" version="1.1" xmlns="http://www.w3.org/2000/svg" xmlns:xlink="http://www.w3.org/1999/xlink">
    <!-- Generator: Sketch 42 (36781) - http://www.bohemiancoding.com/sketch -->
    <title>presence_codepen</title>
    <desc>Created with Sketch.</desc>
    <defs></defs>
    <g id="Pages" stroke="none" stroke-width="1" fill="none" fill-rule="evenodd">
        <g id="White" transform="translate(-10.000000, -10.000000)" fill="#C4C8CC">
            <g id="codepen-flat" transform="translate(10.000000, 10.000000)">
                <path d="M37,53.675 L22.1637868,44.4023667 L9.88512612,52.0765297 L37,69.7011977 L37,53.675 Z M43,53.675 L43,69.7011977 L70.1148739,52.0765297 L57.8362132,44.4023667 L43,53.675 Z M51.2324264,40.275 L40,33.2547335 L28.7675736,40.275 L40,47.2952665 L51.2324264,40.275 Z M7,34.925 L7,45.625 L15.56,40.275 L7,34.925 Z M8.76757358,27.775 L22.1637868,36.1476333 L37,26.875 L37,10.1297335 L8.76757358,27.775 Z M71.2324264,27.775 L43,10.1297335 L43,26.875 L57.8362132,36.1476333 L71.2324264,27.775 Z M73,34.925 L64.44,40.275 L73,45.625 L73,34.925 Z M36.6068776,2.12070151 C38.4808473,0.949470407 41.5192032,0.949501991 43.3931224,2.12070151 L76.6068776,22.8792985 C78.4808473,24.0505296 80,26.7921947 80,29.0018785 L80,49.9981215 C80,52.208298 78.5049563,54.9717784 76.6412776,56.1831696 L43.3587224,77.8168304 C41.5037513,79.0225617 38.5049563,79.0282216 36.6412776,77.8168304 L3.35872243,56.1831696 C1.50375125,54.9774383 0,52.2078053 0,49.9981215 L0,29.0018785 C0,26.791702 1.51920319,24.050498 3.39312241,22.8792985 L36.6068776,2.12070151 Z" id="Combined-Shape"></path>
            </g>
        </g>
    </g>
</svg>