<?xml version="1.0" encoding="UTF-8"?>
<svg width="80px" height="80px" viewBox="0 0 80 80" version="1.1" xmlns="http://www.w3.org/2000/svg" xmlns:xlink="http://www.w3.org/1999/xlink">
    <!-- Generator: Sketch 42 (36781) - http://www.bohemiancoding.com/sketch -->
    <title>presence_dribbble</title>
    <desc>Created with Sketch.</desc>
    <defs></defs>
    <g id="Pages" stroke="none" stroke-width="1" fill="none" fill-rule="evenodd">
        <g id="White" transform="translate(-10.000000, -10.000000)" fill-rule="nonzero" fill="#C4C8CC">
            <g id="dribbble-copy" transform="translate(10.000000, 10.000000)">
                <path d="M43.4356489,39.724185 C42.7400785,38.0651854 42.0141622,36.4193373 41.2572621,34.7898141 C41.2422771,34.7945789 41.2272887,34.7993403 41.2122969,34.8040982 C29.4177661,38.547339 17.2653162,39.7826155 7.00232948,39.6038037 C7.00077794,39.7356846 7,39.8677514 7,40 C7,48.1632544 9.96407034,55.634213 14.8746708,61.3953358 C20.7238097,53.0855678 27.6589832,47.0320635 35.4536239,43.0335409 C38.0884043,41.6819418 40.7550927,40.5865662 43.4356489,39.724185 Z M50.3050442,38.0131724 C57.7748941,36.6744697 65.2331877,36.9784998 72.2941002,38.4284604 C72.5255632,38.4759914 72.7507792,38.5236214 72.9696248,38.5711926 C72.6771632,31.7058667 70.2871589,25.383608 66.4241133,20.228918 C61.3885396,25.3228541 55.1204106,29.332612 47.8529374,32.3753334 C48.708997,34.2377422 49.526026,36.1183473 50.3050428,38.0131691 Z M25.8929121,10.1587241 C16.8784679,14.4277109 10.1075465,22.6609984 7.83120287,32.6075316 C10.8268471,32.6246957 14.3170035,32.5000743 18.1405961,32.1639723 C25.0140257,31.5597832 31.7709604,30.359134 38.1018808,28.4400624 C34.503544,21.6688697 30.4410997,15.5317835 25.8929121,10.1587241 Z M32.9731088,7.74973202 C37.3606282,13.2466769 41.2821397,19.3903943 44.7678736,26.075796 C51.4891619,23.3085017 57.1851251,19.6745318 61.6511503,15.0949757 C55.8562013,10.0528591 48.2846174,7 40,7 C37.5885477,7 35.2375073,7.25865399 32.9731088,7.74973202 Z M52.8079308,70.4223862 C52.2208503,67.4643469 51.4656228,64.1797781 50.524729,60.6492141 C49.240193,55.829184 47.736301,51.0099066 45.998857,46.2620132 C43.5237815,47.0291614 41.0668915,48.0213297 38.6486445,49.2618507 C31.6144161,52.8702943 25.3435258,58.4367525 20.0174975,66.2643453 C25.5637864,70.4905642 32.4888381,73 40,73 C44.5420592,73 48.8697944,72.0823704 52.8079308,70.4223862 Z M59.213894,66.8326763 C66.1071863,61.8878716 71.0165415,54.3526152 72.5180689,45.6507979 C72.0085147,45.5266144 71.4638231,45.4040294 70.8860297,45.2853794 C65.088237,44.0948008 58.9849088,43.7835149 52.8774791,44.69532 C54.5611322,49.3748322 56.0266287,54.1110654 57.2886549,58.8466307 C58.040442,61.6676 58.6793591,64.3414627 59.213894,66.8326763 Z M40,80 C17.90861,80 0,62.09139 0,40 C0,17.90861 17.90861,0 40,0 C62.09139,0 80,17.90861 80,40 C80,62.09139 62.09139,80 40,80 Z" id="Combined-Shape"></path>
            </g>
        </g>
    </g>
</svg>