<?xml version="1.0" encoding="UTF-8"?>
<svg width="80px" height="80px" viewBox="0 0 80 80" version="1.1" xmlns="http://www.w3.org/2000/svg" xmlns:xlink="http://www.w3.org/1999/xlink">
    <!-- Generator: Sketch 42 (36781) - http://www.bohemiancoding.com/sketch -->
    <title>presence_linkedin</title>
    <desc>Created with Sketch.</desc>
    <defs></defs>
    <g id="Pages" stroke="none" stroke-width="1" fill="none" fill-rule="evenodd">
        <g id="White" transform="translate(-10.000000, -10.000000)" fill="#C4C8CC">
            <g id="linkedin" transform="translate(10.000000, 10.000000)">
                <path d="M80,80 L63.4316105,80 L63.4316105,54.013775 C63.4316105,47.8140631 63.3182772,39.8437825 54.816731,39.8437825 C46.1886552,39.8437825 44.867469,46.5948045 44.867469,53.5651065 L44.867469,80 L28.2998557,80 L28.2998557,26.5633511 L44.2045471,26.5633511 L44.2045471,33.8649057 L44.4250036,33.8649057 C46.6373307,29.6635958 52.0455002,25.233675 60.1115673,25.233675 C76.9004133,25.233675 80,36.30109 80,50.6888072 L80,80 Z M9.61547232,19.2585306 C4.30122969,19.2585306 0,14.9429153 0,9.62654376 C0,4.31561533 4.30122969,0 9.61547232,0 C14.9157424,0 19.2231821,4.31561533 19.2231821,9.62654376 C19.2231821,14.9429153 14.9157424,19.2585306 9.61547232,19.2585306 Z M1.23748244,80 L1.23748244,26.6056001 L17.9403515,26.6056001 L17.9403515,80 L1.23748244,80 Z"></path>
            </g>
        </g>
    </g>
</svg>