<?xml version="1.0" encoding="UTF-8"?>
<svg width="80px" height="80px" viewBox="0 0 80 80" version="1.1" xmlns="http://www.w3.org/2000/svg" xmlns:xlink="http://www.w3.org/1999/xlink">
    <!-- Generator: Sketch 42 (36781) - http://www.bohemiancoding.com/sketch -->
    <title>presence_email</title>
    <desc>Created with Sketch.</desc>
    <defs></defs>
    <g id="Pages" stroke="none" stroke-width="1" fill="none" fill-rule="evenodd">
        <g id="White" transform="translate(-10.000000, -10.000000)" fill="#C4C8CC">
            <g id="email" transform="translate(9.000000, 10.000000)">
                <path d="M48.4297518,52.4504405 L72.1480662,32.1204567 C65.9518201,27.4662805 41,8.75 41,8.75 L9.8460805,32.1154396 L33.5718473,52.4518112 L37.8752514,49.027718 C39.6019196,47.6538584 42.4008197,47.653395 44.1280704,49.027718 L48.4297518,52.4504405 Z M54.0078423,56.8887645 L74,72.7959416 L74,39.7526294 L54.0078423,56.8887645 Z M8.00001361,72.7985738 L27.9937568,56.8901352 L8.00548582,39.7573315 C8.00167665,49.958015 8.00016915,70.5456241 8.00001361,72.7985886 Z M1.05544545,33.2196756 C1.33510079,31.153276 2.63931932,28.7705105 4.20575178,27.5956862 L37.7942482,2.40431383 C39.564736,1.07644797 42.4354146,1.07656096 44.2057518,2.40431383 L77.7942482,27.5956862 C79.3607994,28.7705995 80.6649056,31.153402 80.944552,33.2196727 L81.2313792,33.5543044 L80.9941016,33.7576851 C80.998015,33.8416876 81,33.9248935 81,34.0071897 L81,75.9928103 C81,78.2059201 79.2169203,80 77.0054168,80 L4.99458325,80 C2.78843584,80 1,78.2057317 1,75.9928103 L1,34.0071897 C1,33.924893 1.00198489,33.841687 1.00589809,33.7576849 L0.768620809,33.5543044 L1.05544545,33.2196756 Z M41.0016609,55.4855995 L18.989543,73 L63.0137787,73 L41.0016609,55.4855995 Z" id="Combined-Shape"></path>
            </g>
        </g>
    </g>
</svg>