<?xml version="1.0" encoding="UTF-8" standalone="no"?>
<svg width="80px" height="80px" viewBox="0 0 80 80" version="1.1" xmlns="http://www.w3.org/2000/svg" xmlns:xlink="http://www.w3.org/1999/xlink">
    <!-- Generator: Sketch 3.8.3 (29802) - http://www.bohemiancoding.com/sketch -->
    <title>spinner</title>
    <desc>Created with Sketch.</desc>
    <defs></defs>
    <g id="Social-presence-icons" stroke="none" stroke-width="1" fill="none" fill-rule="evenodd">
        <g id="White" transform="translate(-10.000000, -10.000000)">
            <g id="spinner" transform="translate(7.000000, 7.000000)">
                <path d="M83,43 C83,20.90861 65.09139,3 43,3 C20.90861,3 3,20.90861 3,43 C3,65.09139 20.90861,83 43,83 C65.09139,83 83,65.09139 83,43 Z M75,43 C75,25.326888 60.673112,11 43,11 C25.326888,11 11,25.326888 11,43 C11,60.673112 25.326888,75 43,75 C60.673112,75 75,60.673112 75,43 Z" id="Combined-Shape" fill="" transform="translate(43.000000, 43.000000) rotate(-94.000000) translate(-43.000000, -43.000000) "></path>
                <circle id="Oval-4" fill="#FFFFFF" cx="41" cy="7" r="4"></circle>
            </g>
        </g>
    </g>
</svg>